<?xml version="1.0" encoding="utf-8"?>
<!-- Generator: Adobe Illustrator 16.0.2, SVG Export Plug-In . SVG Version: 6.00 Build 0)  -->
<!DOCTYPE svg PUBLIC "-//W3C//DTD SVG 1.1//EN" "http://www.w3.org/Graphics/SVG/1.1/DTD/svg11.dtd">
<svg version="1.1" id="Слой_1" xmlns="http://www.w3.org/2000/svg" xmlns:xlink="http://www.w3.org/1999/xlink" x="0px" y="0px"
	 width="120px" height="24px" viewBox="0 0 120 24" enable-background="new 0 0 120 24" xml:space="preserve">
<path fill="#E95422" d="M3.76,17.01l1.508,1.508l4.143-4.143l4.174,4.176l1.521-1.521l-4.174-4.174l4.186-4.186l-1.51-1.509
	l-4.186,4.186L5.258,7.184l-1.52,1.52l4.164,4.164L3.76,17.01z"/>
<path fill="#FFFFFF" d="M68.045,11.82c0,6.501-5.26,11.76-11.76,11.76c-6.5,0.001-11.759-5.261-11.759-11.76
	S49.787,0.062,56.285,0.062C62.785,0.062,68.045,5.321,68.045,11.82z M60.256,5.628l-2.284-2.274l-8.497,8.538l8.497,8.537
	l2.284-2.274l-6.232-6.262L60.256,5.628z"/>
<path fill="#FFFFFF" d="M103.281,0.241c6.498,0,11.76,5.26,11.76,11.759c0,6.499-5.26,11.76-11.76,11.76S91.521,18.5,91.521,12
	C91.521,5.5,96.781,0.241,103.281,0.241z M105.543,12.071l-6.232,6.263l2.284,2.273l8.497-8.536l-8.497-8.538l-2.284,2.274
	L105.543,12.071z"/>
</svg>
